<svg id="visual" viewBox="0 0 3840 2160" width="3840" height="2160" xmlns="http://www.w3.org/2000/svg" xmlns:xlink="http://www.w3.org/1999/xlink" version="1.1"><rect x="0" y="0" width="3840" height="2160" fill="#313244"></rect><defs><linearGradient id="grad1_0" x1="43.8%" y1="0%" x2="100%" y2="100%"><stop offset="14.444444444444446%" stop-color="#313244" stop-opacity="1"></stop><stop offset="85.55555555555554%" stop-color="#313244" stop-opacity="1"></stop></linearGradient></defs><defs><linearGradient id="grad2_0" x1="0%" y1="0%" x2="56.3%" y2="100%"><stop offset="14.444444444444446%" stop-color="#313244" stop-opacity="1"></stop><stop offset="85.55555555555554%" stop-color="#313244" stop-opacity="1"></stop></linearGradient></defs><g transform="translate(3840, 0)"><path d="M0 1728C-195.7 1629.9 -391.5 1531.7 -605.8 1462.5C-820.1 1393.3 -1052.9 1353 -1221.9 1221.9C-1390.9 1090.8 -1496 869 -1569.7 650.2C-1643.4 431.4 -1685.7 215.7 -1728 0L0 0Z" fill="#fab387"></path></g><g transform="translate(0, 2160)"><path d="M0 -1728C201.5 -1621.2 403 -1514.3 587.4 -1418.2C771.8 -1322 939.1 -1236.6 1119.4 -1119.4C1299.6 -1002.1 1492.9 -853.1 1596.5 -661.3C1700.1 -469.4 1714 -234.7 1728 0L0 0Z" fill="#fab387"></path></g></svg>