<svg id="visual" viewBox="0 0 900 600" width="900" height="600" xmlns="http://www.w3.org/2000/svg" xmlns:xlink="http://www.w3.org/1999/xlink" version="1.1"><rect x="0" y="0" width="900" height="600" fill="#313244"></rect><defs><linearGradient id="grad1_0" x1="33.3%" y1="0%" x2="100%" y2="100%"><stop offset="20%" stop-color="#313244" stop-opacity="1"></stop><stop offset="80%" stop-color="#313244" stop-opacity="1"></stop></linearGradient></defs><defs><linearGradient id="grad2_0" x1="0%" y1="0%" x2="66.7%" y2="100%"><stop offset="20%" stop-color="#313244" stop-opacity="1"></stop><stop offset="80%" stop-color="#313244" stop-opacity="1"></stop></linearGradient></defs><g transform="translate(900, 0)"><path d="M0 378.6C-66.2 368.7 -132.4 358.7 -189.3 327.9C-246.2 297 -293.9 245.1 -323.9 187C-353.9 128.9 -366.2 64.4 -378.6 0L0 0Z" fill="#fab387"></path></g><g transform="translate(0, 600)"><path d="M0 -378.6C71.8 -371.9 143.7 -365.3 189.3 -327.9C234.9 -290.4 254.3 -222.3 281.5 -162.5C308.6 -102.7 343.6 -51.4 378.6 0L0 0Z" fill="#fab387"></path></g></svg>